<svg xmlns="http://www.w3.org/2000/svg" version="1.1" xmlns:xlink="http://www.w3.org/1999/xlink" xmlns:svgjs="http://svgjs.com/svgjs" width="1440" height="560" preserveAspectRatio="none" viewBox="0 0 1440 560"><g mask="url(&quot;#SvgjsMask2359&quot;)" fill="none"><rect width="1440" height="560" x="0" y="0" fill="#0e2a47"></rect><g mask="url(&quot;#SvgjsMask2361&quot;)"><path d="M195 273L221 299M65 273L91 299L117 299L143 299L169 299M169 273L195 247L221 247M-13 273L13 273L39 273L65 273L91 273L117 273L143 273L169 273L195 273L221 273" stroke="url(#SvgjsLinearGradient2360)" stroke-width="4.33"></path><path d="M214.5 273 a6.5 6.5 0 1 0 13 0 a6.5 6.5 0 1 0 -13 0zM214.5 299 a6.5 6.5 0 1 0 13 0 a6.5 6.5 0 1 0 -13 0zM162.5 299 a6.5 6.5 0 1 0 13 0 a6.5 6.5 0 1 0 -13 0zM214.5 247 a6.5 6.5 0 1 0 13 0 a6.5 6.5 0 1 0 -13 0z" fill="url(#SvgjsLinearGradient2360)"></path><path d="M-13 299L13 299" stroke="url(#SvgjsLinearGradient2360)" stroke-width="4.33"></path><path d="M6.5 299 a6.5 6.5 0 1 0 13 0 a6.5 6.5 0 1 0 -13 0z" fill="url(#SvgjsLinearGradient2360)"></path><path d="M897 273L923 247L949 221L975 221L1001 221M637 221L663 195L689 195L715 195L741 195M793 221L819 221L845 195L871 195L897 195L923 195L949 195M559 221L585 247L611 247L637 247L663 247L689 247L715 247L741 247M143 221L169 247M871 273L897 299L923 299L949 299L975 299L1001 273L1027 273L1053 273L1079 273L1105 247L1131 247M1027 247L1053 221L1079 221L1105 221M117 221L143 247M299 221L325 247L351 273L377 273L403 273L429 273L455 273L481 273L507 273M481 221L507 195M-13 247L13 247L39 247L65 247L91 221L117 221L143 221L169 221L195 221L221 221L247 221L273 221L299 221L325 221L351 221L377 221L403 221L429 221L455 221L481 221L507 221L533 221L559 221L585 221L611 221L637 221L663 221L689 221L715 221L741 221L767 221L793 221L819 247L845 273L871 273L897 273L923 273L949 247L975 247L1001 247L1027 247L1053 247L1079 247" stroke="url(#SvgjsLinearGradient2360)" stroke-width="4.33"></path><path d="M1072.5 247 a6.5 6.5 0 1 0 13 0 a6.5 6.5 0 1 0 -13 0zM994.5 221 a6.5 6.5 0 1 0 13 0 a6.5 6.5 0 1 0 -13 0zM734.5 195 a6.5 6.5 0 1 0 13 0 a6.5 6.5 0 1 0 -13 0zM942.5 195 a6.5 6.5 0 1 0 13 0 a6.5 6.5 0 1 0 -13 0zM734.5 247 a6.5 6.5 0 1 0 13 0 a6.5 6.5 0 1 0 -13 0zM162.5 247 a6.5 6.5 0 1 0 13 0 a6.5 6.5 0 1 0 -13 0zM1124.5 247 a6.5 6.5 0 1 0 13 0 a6.5 6.5 0 1 0 -13 0zM1098.5 221 a6.5 6.5 0 1 0 13 0 a6.5 6.5 0 1 0 -13 0zM136.5 247 a6.5 6.5 0 1 0 13 0 a6.5 6.5 0 1 0 -13 0zM500.5 273 a6.5 6.5 0 1 0 13 0 a6.5 6.5 0 1 0 -13 0zM500.5 195 a6.5 6.5 0 1 0 13 0 a6.5 6.5 0 1 0 -13 0z" fill="url(#SvgjsLinearGradient2360)"></path><path d="M169 325L195 351L221 351M403 325L429 299L455 299M325 325L351 299L377 299M481 299L507 325L533 325L559 325L585 325M247 325L273 299L299 299M-13 325L13 325L39 325L65 325L91 325L117 325L143 325L169 325L195 325L221 325L247 325L273 325L299 325L325 325L351 325L377 325L403 325L429 325L455 325L481 299L507 299L533 299" stroke="url(#SvgjsLinearGradient2360)" stroke-width="4.33"></path><path d="M526.5 299 a6.5 6.5 0 1 0 13 0 a6.5 6.5 0 1 0 -13 0zM214.5 351 a6.5 6.5 0 1 0 13 0 a6.5 6.5 0 1 0 -13 0zM448.5 299 a6.5 6.5 0 1 0 13 0 a6.5 6.5 0 1 0 -13 0zM370.5 299 a6.5 6.5 0 1 0 13 0 a6.5 6.5 0 1 0 -13 0zM578.5 325 a6.5 6.5 0 1 0 13 0 a6.5 6.5 0 1 0 -13 0zM292.5 299 a6.5 6.5 0 1 0 13 0 a6.5 6.5 0 1 0 -13 0z" fill="url(#SvgjsLinearGradient2360)"></path><path d="M715 143L741 117L767 117L793 117L819 117L845 117M585 143L611 117L637 117L663 117L689 117L715 117L741 91L767 91L793 65L819 65L845 65L871 91L897 91M663 143L689 169M481 143L507 169L533 169M299 195L325 169L351 169M559 143L585 169L611 195L637 195L663 169M611 143L637 169M-13 221L13 221L39 221L65 221L91 195L117 195L143 195L169 195L195 169L221 169L247 195L273 195L299 195L325 195L351 195L377 195L403 195L429 169L455 169L481 143L507 143L533 143L559 143L585 143L611 143L637 143L663 143L689 143L715 143L741 143" stroke="url(#SvgjsLinearGradient2360)" stroke-width="4.33"></path><path d="M734.5 143 a6.5 6.5 0 1 0 13 0 a6.5 6.5 0 1 0 -13 0zM838.5 117 a6.5 6.5 0 1 0 13 0 a6.5 6.5 0 1 0 -13 0zM890.5 91 a6.5 6.5 0 1 0 13 0 a6.5 6.5 0 1 0 -13 0zM682.5 169 a6.5 6.5 0 1 0 13 0 a6.5 6.5 0 1 0 -13 0zM526.5 169 a6.5 6.5 0 1 0 13 0 a6.5 6.5 0 1 0 -13 0zM344.5 169 a6.5 6.5 0 1 0 13 0 a6.5 6.5 0 1 0 -13 0zM656.5 169 a6.5 6.5 0 1 0 13 0 a6.5 6.5 0 1 0 -13 0zM630.5 169 a6.5 6.5 0 1 0 13 0 a6.5 6.5 0 1 0 -13 0z" fill="url(#SvgjsLinearGradient2360)"></path><path d="M663 377L689 351L715 351L741 351L767 351L793 351M481 377L507 403L533 403L559 403L585 403L611 403L637 403L663 403L689 403L715 403M143 377L169 351M403 351L429 377L455 403L481 403L507 429L533 429L559 429M559 377L585 351L611 325L637 325L663 325L689 325L715 325M117 377L143 351M325 351L351 377L377 403L403 403L429 403L455 429M-13 351L13 351L39 351L65 377L91 377L117 377L143 377L169 377L195 377L221 377L247 351L273 351L299 351L325 351L351 351L377 351L403 351L429 351L455 377L481 377L507 377L533 377L559 377L585 377L611 377L637 377L663 377L689 377L715 377" stroke="url(#SvgjsLinearGradient2360)" stroke-width="4.33"></path><path d="M708.5 377 a6.5 6.5 0 1 0 13 0 a6.5 6.5 0 1 0 -13 0zM786.5 351 a6.5 6.5 0 1 0 13 0 a6.5 6.5 0 1 0 -13 0zM708.5 403 a6.5 6.5 0 1 0 13 0 a6.5 6.5 0 1 0 -13 0zM162.5 351 a6.5 6.5 0 1 0 13 0 a6.5 6.5 0 1 0 -13 0zM552.5 429 a6.5 6.5 0 1 0 13 0 a6.5 6.5 0 1 0 -13 0zM708.5 325 a6.5 6.5 0 1 0 13 0 a6.5 6.5 0 1 0 -13 0zM136.5 351 a6.5 6.5 0 1 0 13 0 a6.5 6.5 0 1 0 -13 0zM448.5 429 a6.5 6.5 0 1 0 13 0 a6.5 6.5 0 1 0 -13 0z" fill="url(#SvgjsLinearGradient2360)"></path><path d="M13 169L39 143L65 143M39 169L65 195M-13 195L13 169L39 169L65 169L91 169L117 169L143 169" stroke="url(#SvgjsLinearGradient2360)" stroke-width="4.33"></path><path d="M136.5 169 a6.5 6.5 0 1 0 13 0 a6.5 6.5 0 1 0 -13 0zM58.5 143 a6.5 6.5 0 1 0 13 0 a6.5 6.5 0 1 0 -13 0zM58.5 195 a6.5 6.5 0 1 0 13 0 a6.5 6.5 0 1 0 -13 0z" fill="url(#SvgjsLinearGradient2360)"></path><path d="M-13 377L13 377L39 377L65 403L91 403L117 403L143 403L169 403L195 403" stroke="url(#SvgjsLinearGradient2360)" stroke-width="4.33"></path><path d="M188.5 403 a6.5 6.5 0 1 0 13 0 a6.5 6.5 0 1 0 -13 0z" fill="url(#SvgjsLinearGradient2360)"></path><path d="M273 455L299 481M169 429L195 455L221 455L247 455L273 481L299 507L325 507L351 507L377 507L403 507L429 507L455 507L481 507L507 507M611 481L637 481L663 481L689 481L715 507L741 507L767 507L793 507M65 429L91 455L117 455L143 455L169 455L195 481L221 507L247 507M741 455L767 429L793 429M351 455L377 481M559 455L585 455L611 455L637 429L663 429L689 429L715 429L741 429L767 403L793 403L819 403M-13 403L13 403L39 403L65 429L91 429L117 429L143 429L169 429L195 429L221 429L247 429L273 455L299 455L325 455L351 455L377 455L403 455L429 455L455 455L481 455L507 455L533 455L559 455L585 481L611 481L637 455L663 455L689 455L715 455L741 455L767 481" stroke="url(#SvgjsLinearGradient2360)" stroke-width="4.33"></path><path d="M760.5 481 a6.5 6.5 0 1 0 13 0 a6.5 6.5 0 1 0 -13 0zM292.5 481 a6.5 6.5 0 1 0 13 0 a6.5 6.5 0 1 0 -13 0zM500.5 507 a6.5 6.5 0 1 0 13 0 a6.5 6.5 0 1 0 -13 0zM786.5 507 a6.5 6.5 0 1 0 13 0 a6.5 6.5 0 1 0 -13 0zM240.5 507 a6.5 6.5 0 1 0 13 0 a6.5 6.5 0 1 0 -13 0zM786.5 429 a6.5 6.5 0 1 0 13 0 a6.5 6.5 0 1 0 -13 0zM370.5 481 a6.5 6.5 0 1 0 13 0 a6.5 6.5 0 1 0 -13 0zM812.5 403 a6.5 6.5 0 1 0 13 0 a6.5 6.5 0 1 0 -13 0z" fill="url(#SvgjsLinearGradient2360)"></path><path d="M299 117L325 143L351 143M325 117L351 91L377 91M611 91L637 65M13 117L39 91M559 91L585 65L611 65M507 117L533 91L559 65M117 117L143 143L169 143L195 143L221 143L247 143L273 143L299 143M-13 143L13 117L39 117L65 117L91 117L117 117L143 117L169 117L195 117L221 117L247 117L273 117L299 117L325 117L351 117L377 117L403 117L429 117L455 117L481 117L507 117L533 117L559 91L585 91L611 91L637 91L663 91L689 65L715 65L741 65L767 65" stroke="url(#SvgjsLinearGradient2360)" stroke-width="4.33"></path><path d="M760.5 65 a6.5 6.5 0 1 0 13 0 a6.5 6.5 0 1 0 -13 0zM344.5 143 a6.5 6.5 0 1 0 13 0 a6.5 6.5 0 1 0 -13 0zM370.5 91 a6.5 6.5 0 1 0 13 0 a6.5 6.5 0 1 0 -13 0zM630.5 65 a6.5 6.5 0 1 0 13 0 a6.5 6.5 0 1 0 -13 0zM32.5 91 a6.5 6.5 0 1 0 13 0 a6.5 6.5 0 1 0 -13 0zM604.5 65 a6.5 6.5 0 1 0 13 0 a6.5 6.5 0 1 0 -13 0zM552.5 65 a6.5 6.5 0 1 0 13 0 a6.5 6.5 0 1 0 -13 0zM292.5 143 a6.5 6.5 0 1 0 13 0 a6.5 6.5 0 1 0 -13 0z" fill="url(#SvgjsLinearGradient2360)"></path></g></g><defs><mask id="SvgjsMask2359"><rect width="1440" height="560" fill="#ffffff"></rect></mask><linearGradient x1="0" y1="280" x2="1180.8" y2="280" gradientUnits="userSpaceOnUse" id="SvgjsLinearGradient2360"><stop stop-color="#3a7cc3" offset="0"></stop><stop stop-color="rgba(14, 42, 71, 1)" offset="1"></stop></linearGradient><mask id="SvgjsMask2361"><rect width="1440" height="560" fill="white"></rect><path d="M217.75 273 a3.25 3.25 0 1 0 6.5 0 a3.25 3.25 0 1 0 -6.5 0zM217.75 299 a3.25 3.25 0 1 0 6.5 0 a3.25 3.25 0 1 0 -6.5 0zM165.75 299 a3.25 3.25 0 1 0 6.5 0 a3.25 3.25 0 1 0 -6.5 0zM217.75 247 a3.25 3.25 0 1 0 6.5 0 a3.25 3.25 0 1 0 -6.5 0z" fill="black"></path><path d="M9.75 299 a3.25 3.25 0 1 0 6.5 0 a3.25 3.25 0 1 0 -6.5 0z" fill="black"></path><path d="M1075.75 247 a3.25 3.25 0 1 0 6.5 0 a3.25 3.25 0 1 0 -6.5 0zM997.75 221 a3.25 3.25 0 1 0 6.5 0 a3.25 3.25 0 1 0 -6.5 0zM737.75 195 a3.25 3.25 0 1 0 6.5 0 a3.25 3.25 0 1 0 -6.5 0zM945.75 195 a3.25 3.25 0 1 0 6.5 0 a3.25 3.25 0 1 0 -6.5 0zM737.75 247 a3.25 3.25 0 1 0 6.5 0 a3.25 3.25 0 1 0 -6.5 0zM165.75 247 a3.25 3.25 0 1 0 6.5 0 a3.25 3.25 0 1 0 -6.5 0zM1127.75 247 a3.25 3.25 0 1 0 6.5 0 a3.25 3.25 0 1 0 -6.5 0zM1101.75 221 a3.25 3.25 0 1 0 6.5 0 a3.25 3.25 0 1 0 -6.5 0zM139.75 247 a3.25 3.25 0 1 0 6.5 0 a3.25 3.25 0 1 0 -6.5 0zM503.75 273 a3.25 3.25 0 1 0 6.5 0 a3.25 3.25 0 1 0 -6.5 0zM503.75 195 a3.25 3.25 0 1 0 6.5 0 a3.25 3.25 0 1 0 -6.5 0z" fill="black"></path><path d="M529.75 299 a3.25 3.25 0 1 0 6.5 0 a3.25 3.25 0 1 0 -6.5 0zM217.75 351 a3.25 3.25 0 1 0 6.5 0 a3.25 3.25 0 1 0 -6.5 0zM451.75 299 a3.25 3.25 0 1 0 6.5 0 a3.25 3.25 0 1 0 -6.5 0zM373.75 299 a3.25 3.25 0 1 0 6.5 0 a3.25 3.25 0 1 0 -6.5 0zM581.75 325 a3.25 3.25 0 1 0 6.5 0 a3.25 3.25 0 1 0 -6.5 0zM295.75 299 a3.25 3.25 0 1 0 6.5 0 a3.25 3.25 0 1 0 -6.5 0z" fill="black"></path><path d="M737.75 143 a3.25 3.25 0 1 0 6.5 0 a3.25 3.25 0 1 0 -6.5 0zM841.75 117 a3.25 3.25 0 1 0 6.5 0 a3.25 3.25 0 1 0 -6.5 0zM893.75 91 a3.25 3.25 0 1 0 6.5 0 a3.25 3.25 0 1 0 -6.5 0zM685.75 169 a3.25 3.25 0 1 0 6.5 0 a3.25 3.25 0 1 0 -6.5 0zM529.75 169 a3.25 3.25 0 1 0 6.5 0 a3.25 3.25 0 1 0 -6.5 0zM347.75 169 a3.25 3.25 0 1 0 6.5 0 a3.25 3.25 0 1 0 -6.5 0zM659.75 169 a3.25 3.25 0 1 0 6.5 0 a3.25 3.25 0 1 0 -6.5 0zM633.75 169 a3.25 3.25 0 1 0 6.5 0 a3.25 3.25 0 1 0 -6.5 0z" fill="black"></path><path d="M711.75 377 a3.25 3.25 0 1 0 6.5 0 a3.25 3.25 0 1 0 -6.5 0zM789.75 351 a3.25 3.25 0 1 0 6.5 0 a3.25 3.25 0 1 0 -6.5 0zM711.75 403 a3.25 3.25 0 1 0 6.5 0 a3.25 3.25 0 1 0 -6.5 0zM165.75 351 a3.25 3.25 0 1 0 6.5 0 a3.25 3.25 0 1 0 -6.5 0zM555.75 429 a3.25 3.25 0 1 0 6.5 0 a3.25 3.25 0 1 0 -6.5 0zM711.75 325 a3.25 3.25 0 1 0 6.5 0 a3.25 3.25 0 1 0 -6.5 0zM139.75 351 a3.25 3.25 0 1 0 6.5 0 a3.25 3.25 0 1 0 -6.5 0zM451.75 429 a3.25 3.25 0 1 0 6.5 0 a3.25 3.25 0 1 0 -6.5 0z" fill="black"></path><path d="M139.75 169 a3.25 3.25 0 1 0 6.5 0 a3.25 3.25 0 1 0 -6.5 0zM61.75 143 a3.25 3.25 0 1 0 6.5 0 a3.25 3.25 0 1 0 -6.5 0zM61.75 195 a3.25 3.25 0 1 0 6.5 0 a3.25 3.25 0 1 0 -6.5 0z" fill="black"></path><path d="M191.75 403 a3.25 3.25 0 1 0 6.5 0 a3.25 3.25 0 1 0 -6.5 0z" fill="black"></path><path d="M763.75 481 a3.25 3.25 0 1 0 6.5 0 a3.25 3.25 0 1 0 -6.5 0zM295.75 481 a3.25 3.25 0 1 0 6.5 0 a3.25 3.25 0 1 0 -6.5 0zM503.75 507 a3.25 3.25 0 1 0 6.5 0 a3.25 3.25 0 1 0 -6.5 0zM789.75 507 a3.25 3.25 0 1 0 6.5 0 a3.25 3.25 0 1 0 -6.5 0zM243.75 507 a3.25 3.25 0 1 0 6.5 0 a3.25 3.25 0 1 0 -6.5 0zM789.75 429 a3.25 3.25 0 1 0 6.5 0 a3.25 3.25 0 1 0 -6.5 0zM373.75 481 a3.25 3.25 0 1 0 6.5 0 a3.25 3.25 0 1 0 -6.5 0zM815.75 403 a3.25 3.25 0 1 0 6.5 0 a3.25 3.25 0 1 0 -6.5 0z" fill="black"></path><path d="M763.75 65 a3.25 3.25 0 1 0 6.5 0 a3.25 3.25 0 1 0 -6.5 0zM347.75 143 a3.25 3.25 0 1 0 6.5 0 a3.25 3.25 0 1 0 -6.5 0zM373.75 91 a3.25 3.25 0 1 0 6.5 0 a3.25 3.25 0 1 0 -6.5 0zM633.75 65 a3.25 3.25 0 1 0 6.5 0 a3.25 3.25 0 1 0 -6.5 0zM35.75 91 a3.25 3.25 0 1 0 6.5 0 a3.25 3.25 0 1 0 -6.5 0zM607.75 65 a3.25 3.25 0 1 0 6.5 0 a3.25 3.25 0 1 0 -6.5 0zM555.75 65 a3.25 3.25 0 1 0 6.5 0 a3.25 3.25 0 1 0 -6.5 0zM295.75 143 a3.25 3.25 0 1 0 6.5 0 a3.25 3.25 0 1 0 -6.5 0z" fill="black"></path></mask></defs></svg>