<svg xmlns="http://www.w3.org/2000/svg" version="1.1" xmlns:xlink="http://www.w3.org/1999/xlink" xmlns:svgjs="http://svgjs.com/svgjs" width="1440" height="560" preserveAspectRatio="none" viewBox="0 0 1440 560"><g mask="url(&quot;#SvgjsMask1073&quot;)" fill="none"><rect width="1440" height="560" x="0" y="0" fill="rgba(95, 30, 236, 1)"></rect><g mask="url(&quot;#SvgjsMask1074&quot;)"><path d="M333.5 264.5L356.5 287.5L379.5 287.5M218.5 264.5L241.5 287.5L264.5 287.5L287.5 287.5M126.5 264.5L149.5 287.5L172.5 287.5L195.5 287.5L218.5 287.5M80.5 264.5L103.5 287.5L126.5 287.5M402.5 287.5L425.5 264.5L448.5 264.5L471.5 264.5L494.5 264.5M-11.5 287.5L11.5 287.5L34.5 287.5L57.5 287.5L80.5 264.5L103.5 264.5L126.5 264.5L149.5 264.5L172.5 264.5L195.5 264.5L218.5 264.5L241.5 264.5L264.5 264.5L287.5 264.5L310.5 264.5L333.5 264.5L356.5 264.5L379.5 264.5L402.5 287.5L425.5 287.5L448.5 310.5L471.5 310.5L494.5 310.5" stroke="rgba(242, 242, 242, 1)" stroke-width="3.83"></path><path d="M488.75 310.5 a5.75 5.75 0 1 0 11.5 0 a5.75 5.75 0 1 0 -11.5 0zM373.75 287.5 a5.75 5.75 0 1 0 11.5 0 a5.75 5.75 0 1 0 -11.5 0zM281.75 287.5 a5.75 5.75 0 1 0 11.5 0 a5.75 5.75 0 1 0 -11.5 0zM212.75 287.5 a5.75 5.75 0 1 0 11.5 0 a5.75 5.75 0 1 0 -11.5 0zM120.75 287.5 a5.75 5.75 0 1 0 11.5 0 a5.75 5.75 0 1 0 -11.5 0zM488.75 264.5 a5.75 5.75 0 1 0 11.5 0 a5.75 5.75 0 1 0 -11.5 0z" fill="rgba(242, 242, 242, 1)"></path><path d="M149.5 241.5L172.5 241.5L195.5 241.5L218.5 241.5L241.5 241.5M287.5 218.5L310.5 241.5L333.5 241.5L356.5 241.5M34.5 241.5L57.5 264.5M11.5 264.5L34.5 264.5M-11.5 264.5L11.5 264.5L34.5 241.5L57.5 241.5L80.5 241.5L103.5 241.5L126.5 241.5L149.5 241.5L172.5 218.5L195.5 218.5L218.5 218.5L241.5 218.5L264.5 218.5L287.5 218.5L310.5 218.5L333.5 218.5" stroke="rgba(55, 205, 190, 1)" stroke-width="3.83"></path><path d="M327.75 218.5 a5.75 5.75 0 1 0 11.5 0 a5.75 5.75 0 1 0 -11.5 0zM235.75 241.5 a5.75 5.75 0 1 0 11.5 0 a5.75 5.75 0 1 0 -11.5 0zM350.75 241.5 a5.75 5.75 0 1 0 11.5 0 a5.75 5.75 0 1 0 -11.5 0zM51.75 264.5 a5.75 5.75 0 1 0 11.5 0 a5.75 5.75 0 1 0 -11.5 0zM28.75 264.5 a5.75 5.75 0 1 0 11.5 0 a5.75 5.75 0 1 0 -11.5 0z" fill="rgba(55, 205, 190, 1)"></path><path d="M310.5 310.5L333.5 287.5M172.5 310.5L195.5 333.5L218.5 333.5L241.5 333.5L264.5 333.5L287.5 333.5L310.5 333.5L333.5 333.5M632.5 310.5L655.5 287.5L678.5 287.5L701.5 287.5M563.5 333.5L586.5 310.5L609.5 287.5L632.5 287.5L655.5 264.5L678.5 264.5M540.5 333.5L563.5 310.5L586.5 287.5L609.5 264.5L632.5 241.5L655.5 241.5M126.5 310.5L149.5 333.5M701.5 310.5L724.5 310.5L747.5 333.5L770.5 333.5L793.5 333.5M517.5 333.5L540.5 310.5L563.5 287.5L586.5 264.5L609.5 241.5L632.5 218.5L655.5 218.5L678.5 218.5L701.5 241.5M-11.5 310.5L11.5 310.5L34.5 310.5L57.5 310.5L80.5 310.5L103.5 310.5L126.5 310.5L149.5 310.5L172.5 310.5L195.5 310.5L218.5 310.5L241.5 310.5L264.5 310.5L287.5 310.5L310.5 310.5L333.5 310.5L356.5 310.5L379.5 310.5L402.5 310.5L425.5 310.5L448.5 333.5L471.5 333.5L494.5 333.5L517.5 333.5L540.5 333.5L563.5 333.5L586.5 333.5L609.5 310.5L632.5 310.5L655.5 310.5L678.5 310.5L701.5 310.5L724.5 287.5" stroke="rgba(55, 205, 190, 1)" stroke-width="3.83"></path><path d="M718.75 287.5 a5.75 5.75 0 1 0 11.5 0 a5.75 5.75 0 1 0 -11.5 0zM327.75 287.5 a5.75 5.75 0 1 0 11.5 0 a5.75 5.75 0 1 0 -11.5 0zM327.75 333.5 a5.75 5.75 0 1 0 11.5 0 a5.75 5.75 0 1 0 -11.5 0zM695.75 287.5 a5.75 5.75 0 1 0 11.5 0 a5.75 5.75 0 1 0 -11.5 0zM672.75 264.5 a5.75 5.75 0 1 0 11.5 0 a5.75 5.75 0 1 0 -11.5 0zM649.75 241.5 a5.75 5.75 0 1 0 11.5 0 a5.75 5.75 0 1 0 -11.5 0zM143.75 333.5 a5.75 5.75 0 1 0 11.5 0 a5.75 5.75 0 1 0 -11.5 0zM787.75 333.5 a5.75 5.75 0 1 0 11.5 0 a5.75 5.75 0 1 0 -11.5 0zM695.75 241.5 a5.75 5.75 0 1 0 11.5 0 a5.75 5.75 0 1 0 -11.5 0z" fill="rgba(55, 205, 190, 1)"></path><path d="M379.5 218.5L402.5 241.5L425.5 241.5L448.5 241.5M356.5 195.5L379.5 195.5L402.5 195.5L425.5 195.5L448.5 195.5M-11.5 241.5L11.5 241.5L34.5 218.5L57.5 218.5L80.5 218.5L103.5 218.5L126.5 218.5L149.5 218.5L172.5 195.5L195.5 195.5L218.5 195.5L241.5 195.5L264.5 195.5L287.5 195.5L310.5 195.5L333.5 195.5L356.5 195.5L379.5 218.5L402.5 218.5L425.5 218.5L448.5 218.5" stroke="rgba(55, 205, 190, 1)" stroke-width="3.83"></path><path d="M442.75 218.5 a5.75 5.75 0 1 0 11.5 0 a5.75 5.75 0 1 0 -11.5 0zM442.75 241.5 a5.75 5.75 0 1 0 11.5 0 a5.75 5.75 0 1 0 -11.5 0zM442.75 195.5 a5.75 5.75 0 1 0 11.5 0 a5.75 5.75 0 1 0 -11.5 0z" fill="rgba(55, 205, 190, 1)"></path><path d="M494.5 356.5L517.5 379.5L540.5 379.5L563.5 379.5M609.5 333.5L632.5 356.5L655.5 356.5M448.5 356.5L471.5 379.5L494.5 379.5L517.5 402.5M356.5 333.5L379.5 356.5L402.5 356.5M586.5 356.5L609.5 356.5M103.5 333.5L126.5 333.5M241.5 356.5L264.5 379.5M678.5 333.5L701.5 333.5M-11.5 333.5L11.5 333.5L34.5 333.5L57.5 333.5L80.5 333.5L103.5 333.5L126.5 356.5L149.5 356.5L172.5 356.5L195.5 356.5L218.5 356.5L241.5 356.5L264.5 356.5L287.5 356.5L310.5 356.5L333.5 356.5L356.5 333.5L379.5 333.5L402.5 333.5L425.5 356.5L448.5 356.5L471.5 356.5L494.5 356.5L517.5 356.5L540.5 356.5L563.5 356.5L586.5 356.5L609.5 333.5L632.5 333.5L655.5 333.5L678.5 333.5L701.5 356.5" stroke="rgba(55, 205, 190, 1)" stroke-width="3.83"></path><path d="M695.75 356.5 a5.75 5.75 0 1 0 11.5 0 a5.75 5.75 0 1 0 -11.5 0zM557.75 379.5 a5.75 5.75 0 1 0 11.5 0 a5.75 5.75 0 1 0 -11.5 0zM649.75 356.5 a5.75 5.75 0 1 0 11.5 0 a5.75 5.75 0 1 0 -11.5 0zM511.75 402.5 a5.75 5.75 0 1 0 11.5 0 a5.75 5.75 0 1 0 -11.5 0zM396.75 356.5 a5.75 5.75 0 1 0 11.5 0 a5.75 5.75 0 1 0 -11.5 0zM603.75 356.5 a5.75 5.75 0 1 0 11.5 0 a5.75 5.75 0 1 0 -11.5 0zM120.75 333.5 a5.75 5.75 0 1 0 11.5 0 a5.75 5.75 0 1 0 -11.5 0zM258.75 379.5 a5.75 5.75 0 1 0 11.5 0 a5.75 5.75 0 1 0 -11.5 0zM695.75 333.5 a5.75 5.75 0 1 0 11.5 0 a5.75 5.75 0 1 0 -11.5 0z" fill="rgba(55, 205, 190, 1)"></path><path d="M333.5 172.5L356.5 149.5L379.5 149.5M-11.5 218.5L11.5 218.5L34.5 195.5L57.5 195.5L80.5 195.5L103.5 195.5L126.5 195.5L149.5 195.5L172.5 172.5L195.5 172.5L218.5 172.5L241.5 172.5L264.5 172.5L287.5 172.5L310.5 172.5L333.5 172.5L356.5 172.5L379.5 172.5L402.5 172.5L425.5 172.5L448.5 172.5" stroke="rgba(55, 205, 190, 1)" stroke-width="3.83"></path><path d="M442.75 172.5 a5.75 5.75 0 1 0 11.5 0 a5.75 5.75 0 1 0 -11.5 0zM373.75 149.5 a5.75 5.75 0 1 0 11.5 0 a5.75 5.75 0 1 0 -11.5 0z" fill="rgba(55, 205, 190, 1)"></path><path d="M264.5 402.5L287.5 402.5M218.5 379.5L241.5 379.5M-11.5 356.5L11.5 356.5L34.5 356.5L57.5 356.5L80.5 356.5L103.5 356.5L126.5 379.5L149.5 379.5L172.5 379.5L195.5 379.5L218.5 379.5L241.5 402.5L264.5 402.5L287.5 379.5L310.5 379.5" stroke="rgba(55, 205, 190, 1)" stroke-width="3.83"></path><path d="M304.75 379.5 a5.75 5.75 0 1 0 11.5 0 a5.75 5.75 0 1 0 -11.5 0zM281.75 402.5 a5.75 5.75 0 1 0 11.5 0 a5.75 5.75 0 1 0 -11.5 0zM235.75 379.5 a5.75 5.75 0 1 0 11.5 0 a5.75 5.75 0 1 0 -11.5 0z" fill="rgba(55, 205, 190, 1)"></path><path d="M540.5 126.5L563.5 149.5L586.5 149.5L609.5 149.5L632.5 149.5L655.5 149.5L678.5 149.5L701.5 149.5L724.5 149.5L747.5 149.5M356.5 126.5L379.5 103.5L402.5 103.5L425.5 103.5L448.5 103.5L471.5 103.5L494.5 103.5M448.5 149.5L471.5 126.5L494.5 126.5L517.5 126.5M126.5 172.5L149.5 149.5M287.5 149.5L310.5 126.5M379.5 126.5L402.5 126.5L425.5 126.5L448.5 126.5M-11.5 195.5L11.5 195.5L34.5 172.5L57.5 172.5L80.5 172.5L103.5 172.5L126.5 172.5L149.5 172.5L172.5 149.5L195.5 149.5L218.5 149.5L241.5 149.5L264.5 149.5L287.5 149.5L310.5 149.5L333.5 126.5L356.5 126.5L379.5 126.5L402.5 149.5L425.5 149.5L448.5 149.5L471.5 149.5L494.5 149.5L517.5 149.5L540.5 126.5L563.5 126.5" stroke="rgba(242, 242, 242, 1)" stroke-width="3.83"></path><path d="M557.75 126.5 a5.75 5.75 0 1 0 11.5 0 a5.75 5.75 0 1 0 -11.5 0zM741.75 149.5 a5.75 5.75 0 1 0 11.5 0 a5.75 5.75 0 1 0 -11.5 0zM488.75 103.5 a5.75 5.75 0 1 0 11.5 0 a5.75 5.75 0 1 0 -11.5 0zM511.75 126.5 a5.75 5.75 0 1 0 11.5 0 a5.75 5.75 0 1 0 -11.5 0zM143.75 149.5 a5.75 5.75 0 1 0 11.5 0 a5.75 5.75 0 1 0 -11.5 0zM304.75 126.5 a5.75 5.75 0 1 0 11.5 0 a5.75 5.75 0 1 0 -11.5 0zM442.75 126.5 a5.75 5.75 0 1 0 11.5 0 a5.75 5.75 0 1 0 -11.5 0z" fill="rgba(242, 242, 242, 1)"></path><path d="M-11.5 379.5L11.5 379.5L34.5 379.5L57.5 379.5L80.5 379.5L103.5 379.5L126.5 402.5L149.5 402.5" stroke="rgba(55, 205, 190, 1)" stroke-width="3.83"></path><path d="M143.75 402.5 a5.75 5.75 0 1 0 11.5 0 a5.75 5.75 0 1 0 -11.5 0z" fill="rgba(55, 205, 190, 1)"></path><path d="M103.5 126.5L126.5 103.5M172.5 126.5L195.5 103.5L218.5 103.5L241.5 103.5M57.5 149.5L80.5 149.5L103.5 149.5L126.5 149.5M-11.5 172.5L11.5 172.5L34.5 149.5L57.5 149.5L80.5 126.5L103.5 126.5L126.5 126.5L149.5 126.5L172.5 126.5L195.5 126.5" stroke="rgba(55, 205, 190, 1)" stroke-width="3.83"></path><path d="M189.75 126.5 a5.75 5.75 0 1 0 11.5 0 a5.75 5.75 0 1 0 -11.5 0zM120.75 103.5 a5.75 5.75 0 1 0 11.5 0 a5.75 5.75 0 1 0 -11.5 0zM235.75 103.5 a5.75 5.75 0 1 0 11.5 0 a5.75 5.75 0 1 0 -11.5 0zM120.75 149.5 a5.75 5.75 0 1 0 11.5 0 a5.75 5.75 0 1 0 -11.5 0z" fill="rgba(55, 205, 190, 1)"></path><path d="M379.5 425.5L402.5 402.5M287.5 425.5L310.5 448.5L333.5 448.5M241.5 425.5L264.5 448.5L287.5 448.5M57.5 402.5L80.5 425.5M195.5 425.5L218.5 448.5L241.5 448.5L264.5 471.5M-11.5 402.5L11.5 402.5L34.5 402.5L57.5 402.5L80.5 402.5L103.5 425.5L126.5 425.5L149.5 425.5L172.5 425.5L195.5 425.5L218.5 425.5L241.5 425.5L264.5 425.5L287.5 425.5L310.5 425.5L333.5 425.5L356.5 425.5L379.5 425.5L402.5 425.5L425.5 425.5L448.5 402.5L471.5 402.5" stroke="rgba(55, 205, 190, 1)" stroke-width="3.83"></path><path d="M465.75 402.5 a5.75 5.75 0 1 0 11.5 0 a5.75 5.75 0 1 0 -11.5 0zM396.75 402.5 a5.75 5.75 0 1 0 11.5 0 a5.75 5.75 0 1 0 -11.5 0zM327.75 448.5 a5.75 5.75 0 1 0 11.5 0 a5.75 5.75 0 1 0 -11.5 0zM281.75 448.5 a5.75 5.75 0 1 0 11.5 0 a5.75 5.75 0 1 0 -11.5 0zM74.75 425.5 a5.75 5.75 0 1 0 11.5 0 a5.75 5.75 0 1 0 -11.5 0zM258.75 471.5 a5.75 5.75 0 1 0 11.5 0 a5.75 5.75 0 1 0 -11.5 0z" fill="rgba(55, 205, 190, 1)"></path><path d="M34.5 126.5L57.5 103.5L80.5 80.5L103.5 57.5M80.5 103.5L103.5 103.5M-11.5 149.5L11.5 149.5L34.5 126.5L57.5 126.5L80.5 103.5L103.5 80.5L126.5 80.5" stroke="rgba(55, 205, 190, 1)" stroke-width="3.83"></path><path d="M120.75 80.5 a5.75 5.75 0 1 0 11.5 0 a5.75 5.75 0 1 0 -11.5 0zM97.75 57.5 a5.75 5.75 0 1 0 11.5 0 a5.75 5.75 0 1 0 -11.5 0zM97.75 103.5 a5.75 5.75 0 1 0 11.5 0 a5.75 5.75 0 1 0 -11.5 0z" fill="rgba(55, 205, 190, 1)"></path></g></g><defs><mask id="SvgjsMask1073"><rect width="1440" height="560" fill="#ffffff"></rect></mask><mask id="SvgjsMask1074"><rect width="1440" height="560" fill="white"></rect><path d="M491.62 310.5 a2.88 2.88 0 1 0 5.76 0 a2.88 2.88 0 1 0 -5.76 0zM376.62 287.5 a2.88 2.88 0 1 0 5.76 0 a2.88 2.88 0 1 0 -5.76 0zM284.62 287.5 a2.88 2.88 0 1 0 5.76 0 a2.88 2.88 0 1 0 -5.76 0zM215.62 287.5 a2.88 2.88 0 1 0 5.76 0 a2.88 2.88 0 1 0 -5.76 0zM123.62 287.5 a2.88 2.88 0 1 0 5.76 0 a2.88 2.88 0 1 0 -5.76 0zM491.62 264.5 a2.88 2.88 0 1 0 5.76 0 a2.88 2.88 0 1 0 -5.76 0z" fill="black"></path><path d="M330.62 218.5 a2.88 2.88 0 1 0 5.76 0 a2.88 2.88 0 1 0 -5.76 0zM238.62 241.5 a2.88 2.88 0 1 0 5.76 0 a2.88 2.88 0 1 0 -5.76 0zM353.62 241.5 a2.88 2.88 0 1 0 5.76 0 a2.88 2.88 0 1 0 -5.76 0zM54.62 264.5 a2.88 2.88 0 1 0 5.76 0 a2.88 2.88 0 1 0 -5.76 0zM31.62 264.5 a2.88 2.88 0 1 0 5.76 0 a2.88 2.88 0 1 0 -5.76 0z" fill="black"></path><path d="M721.62 287.5 a2.88 2.88 0 1 0 5.76 0 a2.88 2.88 0 1 0 -5.76 0zM330.62 287.5 a2.88 2.88 0 1 0 5.76 0 a2.88 2.88 0 1 0 -5.76 0zM330.62 333.5 a2.88 2.88 0 1 0 5.76 0 a2.88 2.88 0 1 0 -5.76 0zM698.62 287.5 a2.88 2.88 0 1 0 5.76 0 a2.88 2.88 0 1 0 -5.76 0zM675.62 264.5 a2.88 2.88 0 1 0 5.76 0 a2.88 2.88 0 1 0 -5.76 0zM652.62 241.5 a2.88 2.88 0 1 0 5.76 0 a2.88 2.88 0 1 0 -5.76 0zM146.62 333.5 a2.88 2.88 0 1 0 5.76 0 a2.88 2.88 0 1 0 -5.76 0zM790.62 333.5 a2.88 2.88 0 1 0 5.76 0 a2.88 2.88 0 1 0 -5.76 0zM698.62 241.5 a2.88 2.88 0 1 0 5.76 0 a2.88 2.88 0 1 0 -5.76 0z" fill="black"></path><path d="M445.62 218.5 a2.88 2.88 0 1 0 5.76 0 a2.88 2.88 0 1 0 -5.76 0zM445.62 241.5 a2.88 2.88 0 1 0 5.76 0 a2.88 2.88 0 1 0 -5.76 0zM445.62 195.5 a2.88 2.88 0 1 0 5.76 0 a2.88 2.88 0 1 0 -5.76 0z" fill="black"></path><path d="M698.62 356.5 a2.88 2.88 0 1 0 5.76 0 a2.88 2.88 0 1 0 -5.76 0zM560.62 379.5 a2.88 2.88 0 1 0 5.76 0 a2.88 2.88 0 1 0 -5.76 0zM652.62 356.5 a2.88 2.88 0 1 0 5.76 0 a2.88 2.88 0 1 0 -5.76 0zM514.62 402.5 a2.88 2.88 0 1 0 5.76 0 a2.88 2.88 0 1 0 -5.76 0zM399.62 356.5 a2.88 2.88 0 1 0 5.76 0 a2.88 2.88 0 1 0 -5.76 0zM606.62 356.5 a2.88 2.88 0 1 0 5.76 0 a2.88 2.88 0 1 0 -5.76 0zM123.62 333.5 a2.88 2.88 0 1 0 5.76 0 a2.88 2.88 0 1 0 -5.76 0zM261.62 379.5 a2.88 2.88 0 1 0 5.76 0 a2.88 2.88 0 1 0 -5.76 0zM698.62 333.5 a2.88 2.88 0 1 0 5.76 0 a2.88 2.88 0 1 0 -5.76 0z" fill="black"></path><path d="M445.62 172.5 a2.88 2.88 0 1 0 5.76 0 a2.88 2.88 0 1 0 -5.76 0zM376.62 149.5 a2.88 2.88 0 1 0 5.76 0 a2.88 2.88 0 1 0 -5.76 0z" fill="black"></path><path d="M307.62 379.5 a2.88 2.88 0 1 0 5.76 0 a2.88 2.88 0 1 0 -5.76 0zM284.62 402.5 a2.88 2.88 0 1 0 5.76 0 a2.88 2.88 0 1 0 -5.76 0zM238.62 379.5 a2.88 2.88 0 1 0 5.76 0 a2.88 2.88 0 1 0 -5.76 0z" fill="black"></path><path d="M560.62 126.5 a2.88 2.88 0 1 0 5.76 0 a2.88 2.88 0 1 0 -5.76 0zM744.62 149.5 a2.88 2.88 0 1 0 5.76 0 a2.88 2.88 0 1 0 -5.76 0zM491.62 103.5 a2.88 2.88 0 1 0 5.76 0 a2.88 2.88 0 1 0 -5.76 0zM514.62 126.5 a2.88 2.88 0 1 0 5.76 0 a2.88 2.88 0 1 0 -5.76 0zM146.62 149.5 a2.88 2.88 0 1 0 5.76 0 a2.88 2.88 0 1 0 -5.76 0zM307.62 126.5 a2.88 2.88 0 1 0 5.76 0 a2.88 2.88 0 1 0 -5.76 0zM445.62 126.5 a2.88 2.88 0 1 0 5.76 0 a2.88 2.88 0 1 0 -5.76 0z" fill="black"></path><path d="M146.62 402.5 a2.88 2.88 0 1 0 5.76 0 a2.88 2.88 0 1 0 -5.76 0z" fill="black"></path><path d="M192.62 126.5 a2.88 2.88 0 1 0 5.76 0 a2.88 2.88 0 1 0 -5.76 0zM123.62 103.5 a2.88 2.88 0 1 0 5.76 0 a2.88 2.88 0 1 0 -5.76 0zM238.62 103.5 a2.88 2.88 0 1 0 5.76 0 a2.88 2.88 0 1 0 -5.76 0zM123.62 149.5 a2.88 2.88 0 1 0 5.76 0 a2.88 2.88 0 1 0 -5.76 0z" fill="black"></path><path d="M468.62 402.5 a2.88 2.88 0 1 0 5.76 0 a2.88 2.88 0 1 0 -5.76 0zM399.62 402.5 a2.88 2.88 0 1 0 5.76 0 a2.88 2.88 0 1 0 -5.76 0zM330.62 448.5 a2.88 2.88 0 1 0 5.76 0 a2.88 2.88 0 1 0 -5.76 0zM284.62 448.5 a2.88 2.88 0 1 0 5.76 0 a2.88 2.88 0 1 0 -5.76 0zM77.62 425.5 a2.88 2.88 0 1 0 5.76 0 a2.88 2.88 0 1 0 -5.76 0zM261.62 471.5 a2.88 2.88 0 1 0 5.76 0 a2.88 2.88 0 1 0 -5.76 0z" fill="black"></path><path d="M123.62 80.5 a2.88 2.88 0 1 0 5.76 0 a2.88 2.88 0 1 0 -5.76 0zM100.62 57.5 a2.88 2.88 0 1 0 5.76 0 a2.88 2.88 0 1 0 -5.76 0zM100.62 103.5 a2.88 2.88 0 1 0 5.76 0 a2.88 2.88 0 1 0 -5.76 0z" fill="black"></path></mask></defs></svg>